<svg width="108" height="108" viewBox="0 0 108 108" fill="none" xmlns="http://www.w3.org/2000/svg">
<path d="M54 0C33.0535 0 16.0312 17.0227 16.0312 37.9688C16.0312 45.0563 17.9934 51.9541 21.7268 57.9026L51.4261 106.506C51.9328 107.328 52.6922 107.835 53.5783 107.961C54.7803 108.151 56.1098 107.645 56.8057 106.442L86.5901 57.3961C90.1334 51.5744 91.9688 44.8033 91.9688 37.9688C91.9688 17.0227 74.9465 0 54 0ZM54 56.9531C43.3692 56.9531 35.0156 48.3469 35.0156 37.9688C35.0156 27.5271 43.5584 18.9844 54 18.9844C64.4416 18.9844 72.9844 27.5271 72.9844 37.9688C72.9844 48.2836 64.7576 56.9531 54 56.9531Z" fill="#FD003A"/>
<path d="M54 0V18.9844C64.4416 18.9844 72.9844 27.5271 72.9844 37.9688C72.9844 48.2836 64.7576 56.9531 54 56.9531V107.998C55.0798 108.023 56.1902 107.506 56.8055 106.442L86.5898 57.3961C90.1334 51.5744 91.9688 44.8033 91.9688 37.9688C91.9688 17.0227 74.9465 0 54 0Z" fill="#E50027"/>
</svg>
